<?xml version="1.0" encoding="iso-8859-1"?>
<!-- Generator: Adobe Illustrator 18.0.0, SVG Export Plug-In . SVG Version: 6.00 Build 0)  -->
<!DOCTYPE svg PUBLIC "-//W3C//DTD SVG 1.1//EN" "http://www.w3.org/Graphics/SVG/1.1/DTD/svg11.dtd">
<svg version="1.1" id="Capa_1" xmlns="http://www.w3.org/2000/svg" xmlns:xlink="http://www.w3.org/1999/xlink" x="0px" y="0px"
	 viewBox="0 0 484.251 484.251" style="enable-background:new 0 0 484.251 484.251;" xml:space="preserve">
<g>
	<path d="M28.434,77.538c0,0,46.947,315.921,182.927,399.046c18.579,10.771,39.653,10.257,53.775-1.949
		c56.735-48.903,115.497-131.272,132.112-169.42c31.268,2.977,52.777-4.676,52.777-4.676l-0.186-60.282
		c0,0-45.825,0.842-54.554,0.982c-66.464,0.981-112.35-79.657-85.322-147.787c18.735-47.196,51.654-13.171,57.546,1.497
		c5.86,14.675,4.583,53.984-3.991,82.813c10.444,24.3,66.963,37.191,79.867,16.864c15.869-44.633,22.819-124.959-18.36-166.63
		c-27.152-27.464-95.298-41.43-145.206-10.132c-49.879,31.306-48.912,97.807-44.984,131.069
		c3.896,33.254,14.683,103.668,81.177,142.799c5.86,6.843-72.916,109.161-77.28,104.657
		C140.908,295.645,114.504,78.521,114.504,78.521L28.434,77.538z"/>
</g>
<g>
</g>
<g>
</g>
<g>
</g>
<g>
</g>
<g>
</g>
<g>
</g>
<g>
</g>
<g>
</g>
<g>
</g>
<g>
</g>
<g>
</g>
<g>
</g>
<g>
</g>
<g>
</g>
<g>
</g>
</svg>
